<mxfile host="app.diagrams.net" modified="2021-08-12T05:53:23.465Z" agent="5.0 (Windows NT 10.0; Win64; x64) AppleWebKit/537.36 (KHTML, like Gecko) Chrome/92.0.4515.107 Safari/537.36" etag="27cdSD7q9VaMGJqTxTTF" version="14.9.6" type="github">
  <diagram id="kgpKYQtTHZ0yAKxKKP6v" name="Page-1">
    <mxGraphModel dx="1662" dy="796" grid="1" gridSize="10" guides="1" tooltips="1" connect="1" arrows="1" fold="1" page="1" pageScale="1" pageWidth="1600" pageHeight="900" background="none" math="0" shadow="0">
      <root>
        <object label="" id="0">
          <mxCell />
        </object>
        <mxCell id="1" parent="0" />
        <mxCell id="3nuBFxr9cyL0pnOWT2aG-1" value="Prov_Com_Rx_msg" style="shape=umlLifeline;perimeter=lifelinePerimeter;container=1;collapsible=0;recursiveResize=0;rounded=0;shadow=0;strokeWidth=1;" parent="1" vertex="1">
          <mxGeometry x="170" y="40" width="100" height="800" as="geometry" />
        </mxCell>
        <mxCell id="3nuBFxr9cyL0pnOWT2aG-2" value="" style="points=[];perimeter=orthogonalPerimeter;rounded=0;shadow=0;strokeWidth=1;" parent="3nuBFxr9cyL0pnOWT2aG-1" vertex="1">
          <mxGeometry x="45" y="80" width="10" height="40" as="geometry" />
        </mxCell>
        <mxCell id="3nuBFxr9cyL0pnOWT2aG-5" value="Prov_Flex" style="shape=umlLifeline;perimeter=lifelinePerimeter;container=1;collapsible=0;recursiveResize=0;rounded=0;shadow=0;strokeWidth=1;" parent="1" vertex="1">
          <mxGeometry x="350" y="40" width="100" height="800" as="geometry" />
        </mxCell>
        <mxCell id="3nuBFxr9cyL0pnOWT2aG-6" value="" style="points=[];perimeter=orthogonalPerimeter;rounded=0;shadow=0;strokeWidth=1;" parent="3nuBFxr9cyL0pnOWT2aG-5" vertex="1">
          <mxGeometry x="45" y="170" width="10" height="30" as="geometry" />
        </mxCell>
        <mxCell id="O0rYHsYLg1H_dyIOlwgl-3" value="Prov_RealAnalysis" style="shape=umlLifeline;perimeter=lifelinePerimeter;container=1;collapsible=0;recursiveResize=0;rounded=0;shadow=0;strokeWidth=1;" vertex="1" parent="1">
          <mxGeometry x="530" y="40" width="100" height="800" as="geometry" />
        </mxCell>
        <mxCell id="O0rYHsYLg1H_dyIOlwgl-4" value="" style="points=[];perimeter=orthogonalPerimeter;rounded=0;shadow=0;strokeWidth=1;" vertex="1" parent="O0rYHsYLg1H_dyIOlwgl-3">
          <mxGeometry x="45" y="230" width="10" height="120" as="geometry" />
        </mxCell>
        <mxCell id="O0rYHsYLg1H_dyIOlwgl-7" value=":Object" style="shape=umlLifeline;perimeter=lifelinePerimeter;container=1;collapsible=0;recursiveResize=0;rounded=0;shadow=0;strokeWidth=1;" vertex="1" parent="1">
          <mxGeometry x="1030" y="40" width="100" height="800" as="geometry" />
        </mxCell>
        <mxCell id="O0rYHsYLg1H_dyIOlwgl-8" value="" style="points=[];perimeter=orthogonalPerimeter;rounded=0;shadow=0;strokeWidth=1;" vertex="1" parent="O0rYHsYLg1H_dyIOlwgl-7">
          <mxGeometry x="45" y="80" width="10" height="160" as="geometry" />
        </mxCell>
        <mxCell id="O0rYHsYLg1H_dyIOlwgl-13" value=":Object" style="shape=umlLifeline;perimeter=lifelinePerimeter;container=1;collapsible=0;recursiveResize=0;rounded=0;shadow=0;strokeWidth=1;" vertex="1" parent="1">
          <mxGeometry x="1285" y="40" width="100" height="300" as="geometry" />
        </mxCell>
        <mxCell id="O0rYHsYLg1H_dyIOlwgl-14" value="" style="points=[];perimeter=orthogonalPerimeter;rounded=0;shadow=0;strokeWidth=1;" vertex="1" parent="O0rYHsYLg1H_dyIOlwgl-13">
          <mxGeometry x="45" y="70" width="10" height="190" as="geometry" />
        </mxCell>
        <mxCell id="O0rYHsYLg1H_dyIOlwgl-15" value="dispatch" style="verticalAlign=bottom;startArrow=oval;endArrow=block;startSize=8;shadow=0;strokeWidth=1;" edge="1" parent="O0rYHsYLg1H_dyIOlwgl-13" target="O0rYHsYLg1H_dyIOlwgl-14">
          <mxGeometry relative="1" as="geometry">
            <mxPoint x="-15" y="70" as="sourcePoint" />
          </mxGeometry>
        </mxCell>
        <mxCell id="O0rYHsYLg1H_dyIOlwgl-16" value="" style="points=[];perimeter=orthogonalPerimeter;rounded=0;shadow=0;strokeWidth=1;" vertex="1" parent="O0rYHsYLg1H_dyIOlwgl-13">
          <mxGeometry x="50" y="120" width="10" height="80" as="geometry" />
        </mxCell>
        <mxCell id="O0rYHsYLg1H_dyIOlwgl-17" value=":Object" style="shape=umlLifeline;perimeter=lifelinePerimeter;container=1;collapsible=0;recursiveResize=0;rounded=0;shadow=0;strokeWidth=1;" vertex="1" parent="1">
          <mxGeometry x="1465" y="40" width="100" height="300" as="geometry" />
        </mxCell>
        <mxCell id="O0rYHsYLg1H_dyIOlwgl-18" value="" style="points=[];perimeter=orthogonalPerimeter;rounded=0;shadow=0;strokeWidth=1;" vertex="1" parent="O0rYHsYLg1H_dyIOlwgl-17">
          <mxGeometry x="45" y="80" width="10" height="160" as="geometry" />
        </mxCell>
        <mxCell id="O0rYHsYLg1H_dyIOlwgl-19" value="return" style="verticalAlign=bottom;endArrow=open;dashed=1;endSize=8;exitX=0;exitY=0.95;shadow=0;strokeWidth=1;" edge="1" source="O0rYHsYLg1H_dyIOlwgl-18" target="O0rYHsYLg1H_dyIOlwgl-14" parent="1">
          <mxGeometry relative="1" as="geometry">
            <mxPoint x="1440" y="196" as="targetPoint" />
          </mxGeometry>
        </mxCell>
        <mxCell id="O0rYHsYLg1H_dyIOlwgl-20" value="dispatch" style="verticalAlign=bottom;endArrow=block;entryX=0;entryY=0;shadow=0;strokeWidth=1;" edge="1" source="O0rYHsYLg1H_dyIOlwgl-14" target="O0rYHsYLg1H_dyIOlwgl-18" parent="1">
          <mxGeometry relative="1" as="geometry">
            <mxPoint x="1440" y="120" as="sourcePoint" />
          </mxGeometry>
        </mxCell>
        <mxCell id="O0rYHsYLg1H_dyIOlwgl-21" value="callback" style="verticalAlign=bottom;endArrow=block;entryX=1;entryY=0;shadow=0;strokeWidth=1;" edge="1" source="O0rYHsYLg1H_dyIOlwgl-18" target="O0rYHsYLg1H_dyIOlwgl-16" parent="1">
          <mxGeometry relative="1" as="geometry">
            <mxPoint x="1405" y="160" as="sourcePoint" />
          </mxGeometry>
        </mxCell>
        <mxCell id="O0rYHsYLg1H_dyIOlwgl-22" value="return" style="verticalAlign=bottom;endArrow=open;dashed=1;endSize=8;exitX=1;exitY=0.95;shadow=0;strokeWidth=1;" edge="1" source="O0rYHsYLg1H_dyIOlwgl-16" target="O0rYHsYLg1H_dyIOlwgl-18" parent="1">
          <mxGeometry relative="1" as="geometry">
            <mxPoint x="1405" y="217" as="targetPoint" />
          </mxGeometry>
        </mxCell>
        <mxCell id="O0rYHsYLg1H_dyIOlwgl-25" value="" style="points=[];perimeter=orthogonalPerimeter;rounded=0;shadow=0;strokeWidth=1;" vertex="1" parent="1">
          <mxGeometry x="40" y="80" width="10" height="760" as="geometry" />
        </mxCell>
        <mxCell id="O0rYHsYLg1H_dyIOlwgl-27" value="Prov_AppRxCallback()&#xa;REQ_CONNECT" style="verticalAlign=bottom;endArrow=block;entryX=0;entryY=0;shadow=0;strokeWidth=1;" edge="1" parent="1">
          <mxGeometry relative="1" as="geometry">
            <mxPoint x="50" y="120.00000000000011" as="sourcePoint" />
            <mxPoint x="220" y="120.00000000000011" as="targetPoint" />
          </mxGeometry>
        </mxCell>
        <mxCell id="O0rYHsYLg1H_dyIOlwgl-28" value="Prov_ResponseConnect()&#xa;RES_CONNECT" style="verticalAlign=bottom;endArrow=block;entryX=1;entryY=0;shadow=0;strokeWidth=1;" edge="1" parent="1">
          <mxGeometry relative="1" as="geometry">
            <mxPoint x="215" y="160" as="sourcePoint" />
            <mxPoint x="50" y="160" as="targetPoint" />
          </mxGeometry>
        </mxCell>
        <mxCell id="O0rYHsYLg1H_dyIOlwgl-30" value="" style="points=[];perimeter=orthogonalPerimeter;rounded=0;shadow=0;strokeWidth=1;" vertex="1" parent="1">
          <mxGeometry x="215" y="200" width="10" height="210" as="geometry" />
        </mxCell>
        <mxCell id="O0rYHsYLg1H_dyIOlwgl-29" value="Prov_AppRxCallback()&#xa;REQ_EVENTCHAIN" style="verticalAlign=bottom;endArrow=block;entryX=0;entryY=0;shadow=0;strokeWidth=1;" edge="1" parent="1">
          <mxGeometry relative="1" as="geometry">
            <mxPoint x="50" y="200.0000000000001" as="sourcePoint" />
            <mxPoint x="220" y="200.0000000000001" as="targetPoint" />
          </mxGeometry>
        </mxCell>
        <mxCell id="O0rYHsYLg1H_dyIOlwgl-34" value="Prov_EventChainSetting()" style="verticalAlign=bottom;endArrow=block;entryX=0;entryY=0;shadow=0;strokeWidth=1;" edge="1" parent="1">
          <mxGeometry relative="1" as="geometry">
            <mxPoint x="225" y="210.0000000000001" as="sourcePoint" />
            <mxPoint x="395" y="210.0000000000001" as="targetPoint" />
          </mxGeometry>
        </mxCell>
        <mxCell id="O0rYHsYLg1H_dyIOlwgl-35" value="CoreID, StartID, StartType, StartStatus, EndID, EndType, EndStatus, TRT, EventchainID" style="shape=callout;whiteSpace=wrap;html=1;perimeter=calloutPerimeter;position2=0.17;size=10;position=0.17;base=10;" vertex="1" parent="1">
          <mxGeometry x="270" y="100" width="120" height="90" as="geometry" />
        </mxCell>
        <mxCell id="O0rYHsYLg1H_dyIOlwgl-36" value="Prov_ResponseDefault()&#xa;RES_CONNECT" style="verticalAlign=bottom;endArrow=block;entryX=1;entryY=0;shadow=0;strokeWidth=1;" edge="1" parent="1">
          <mxGeometry relative="1" as="geometry">
            <mxPoint x="215" y="410" as="sourcePoint" />
            <mxPoint x="50" y="410" as="targetPoint" />
          </mxGeometry>
        </mxCell>
        <mxCell id="O0rYHsYLg1H_dyIOlwgl-39" value="return" style="verticalAlign=bottom;endArrow=open;dashed=1;endSize=8;exitX=0;exitY=0.95;shadow=0;strokeWidth=1;" edge="1" parent="1">
          <mxGeometry relative="1" as="geometry">
            <mxPoint x="225" y="239.99999999999977" as="targetPoint" />
            <mxPoint x="395" y="239.99999999999977" as="sourcePoint" />
          </mxGeometry>
        </mxCell>
        <mxCell id="O0rYHsYLg1H_dyIOlwgl-40" value="Prov_ra_EnableEventChain()" style="verticalAlign=bottom;endArrow=block;shadow=0;strokeWidth=1;" edge="1" parent="1" target="O0rYHsYLg1H_dyIOlwgl-3">
          <mxGeometry relative="1" as="geometry">
            <mxPoint x="225" y="270.0000000000001" as="sourcePoint" />
            <mxPoint x="570" y="270" as="targetPoint" />
          </mxGeometry>
        </mxCell>
        <mxCell id="O0rYHsYLg1H_dyIOlwgl-41" value="CoreConfig :&amp;nbsp;1 &amp;lt;&amp;lt; Rx_Buffer[2]&lt;br&gt;clear all f_onEvc flag(task, runnable) and eventchain table" style="shape=callout;whiteSpace=wrap;html=1;perimeter=calloutPerimeter;position2=0.09;size=10;position=0.14;base=30;direction=east;" vertex="1" parent="1">
          <mxGeometry x="440" y="190" width="220" height="60" as="geometry" />
        </mxCell>
        <mxCell id="O0rYHsYLg1H_dyIOlwgl-49" value="return" style="verticalAlign=bottom;endArrow=open;dashed=1;endSize=8;shadow=0;strokeWidth=1;" edge="1" parent="1">
          <mxGeometry relative="1" as="geometry">
            <mxPoint x="225" y="389.9999999999998" as="targetPoint" />
            <mxPoint x="584.5" y="389.9999999999998" as="sourcePoint" />
          </mxGeometry>
        </mxCell>
        <mxCell id="O0rYHsYLg1H_dyIOlwgl-54" value="&lt;span style=&quot;color: rgb(0 , 0 , 0) ; font-family: &amp;#34;helvetica&amp;#34; ; font-size: 11px ; font-style: normal ; font-weight: 400 ; letter-spacing: normal ; text-align: center ; text-indent: 0px ; text-transform: none ; word-spacing: 0px ; background-color: rgb(255 , 255 , 255) ; display: inline ; float: none&quot;&gt;Prov_ra_set_EventChainConfig(CoreID, OnOff=TRUE)&lt;br&gt;Start item info, End item info, ID, TRT 형태로 입력받은 eventchain 정보를 RA하기 위한 구조체로 옮기는 과정.&lt;br&gt;eventchain index = ID;&lt;br&gt;StartInform, EndInform의 f_onEVc = TRUE;&lt;br&gt;&lt;/span&gt;" style="text;whiteSpace=wrap;html=1;" vertex="1" parent="1">
          <mxGeometry x="660" y="290" width="310" height="80" as="geometry" />
        </mxCell>
        <mxCell id="O0rYHsYLg1H_dyIOlwgl-55" value="dfsdf" style="verticalAlign=bottom;endArrow=block;shadow=0;strokeWidth=1;" edge="1" parent="1">
          <mxGeometry relative="1" as="geometry">
            <mxPoint x="580" y="334.5000000000001" as="sourcePoint" />
            <mxPoint x="660" y="335" as="targetPoint" />
          </mxGeometry>
        </mxCell>
        <mxCell id="O0rYHsYLg1H_dyIOlwgl-56" value="return" style="verticalAlign=bottom;endArrow=open;dashed=1;endSize=8;shadow=0;strokeWidth=1;" edge="1" parent="1">
          <mxGeometry relative="1" as="geometry">
            <mxPoint x="580" y="359.9999999999998" as="targetPoint" />
            <mxPoint x="660" y="359" as="sourcePoint" />
          </mxGeometry>
        </mxCell>
        <mxCell id="O0rYHsYLg1H_dyIOlwgl-58" value="" style="points=[];perimeter=orthogonalPerimeter;rounded=0;shadow=0;strokeWidth=1;" vertex="1" parent="1">
          <mxGeometry x="215" y="460" width="10" height="190" as="geometry" />
        </mxCell>
        <mxCell id="O0rYHsYLg1H_dyIOlwgl-57" value="Prov_AppRxCallback()&#xa;CFM_EVENTCHAIN" style="verticalAlign=bottom;endArrow=block;entryX=0;entryY=0;shadow=0;strokeWidth=1;" edge="1" parent="1">
          <mxGeometry relative="1" as="geometry">
            <mxPoint x="50" y="459.5000000000001" as="sourcePoint" />
            <mxPoint x="220" y="459.5000000000001" as="targetPoint" />
          </mxGeometry>
        </mxCell>
        <mxCell id="O0rYHsYLg1H_dyIOlwgl-60" value="Prov_ResponseOneValue()&#xa;RES_CFM_EVENTCHAIN" style="verticalAlign=bottom;endArrow=block;entryX=1;entryY=0;shadow=0;strokeWidth=1;" edge="1" parent="1">
          <mxGeometry relative="1" as="geometry">
            <mxPoint x="215" y="650" as="sourcePoint" />
            <mxPoint x="50" y="650" as="targetPoint" />
          </mxGeometry>
        </mxCell>
        <mxCell id="O0rYHsYLg1H_dyIOlwgl-65" value="Prov_ra_EnableEventChain()" style="verticalAlign=bottom;endArrow=block;shadow=0;strokeWidth=1;" edge="1" parent="1">
          <mxGeometry relative="1" as="geometry">
            <mxPoint x="225" y="470" as="sourcePoint" />
            <mxPoint x="579.5" y="470" as="targetPoint" />
          </mxGeometry>
        </mxCell>
        <mxCell id="O0rYHsYLg1H_dyIOlwgl-71" value="return" style="verticalAlign=bottom;endArrow=open;dashed=1;endSize=8;shadow=0;strokeWidth=1;" edge="1" parent="1">
          <mxGeometry relative="1" as="geometry">
            <mxPoint x="225" y="588.9999999999998" as="targetPoint" />
            <mxPoint x="584.5" y="588.9999999999998" as="sourcePoint" />
          </mxGeometry>
        </mxCell>
        <mxCell id="O0rYHsYLg1H_dyIOlwgl-72" value="dfsdf" style="verticalAlign=bottom;endArrow=block;shadow=0;strokeWidth=1;" edge="1" parent="1">
          <mxGeometry relative="1" as="geometry">
            <mxPoint x="580" y="533.5" as="sourcePoint" />
            <mxPoint x="660" y="534" as="targetPoint" />
          </mxGeometry>
        </mxCell>
        <mxCell id="O0rYHsYLg1H_dyIOlwgl-73" value="return" style="verticalAlign=bottom;endArrow=open;dashed=1;endSize=8;shadow=0;strokeWidth=1;" edge="1" parent="1">
          <mxGeometry relative="1" as="geometry">
            <mxPoint x="580" y="558.9999999999998" as="targetPoint" />
            <mxPoint x="660" y="558" as="sourcePoint" />
          </mxGeometry>
        </mxCell>
        <mxCell id="O0rYHsYLg1H_dyIOlwgl-74" value="&lt;span style=&quot;color: rgb(0 , 0 , 0) ; font-family: &amp;#34;helvetica&amp;#34; ; font-size: 11px ; font-style: normal ; font-weight: 400 ; letter-spacing: normal ; text-align: center ; text-indent: 0px ; text-transform: none ; word-spacing: 0px ; background-color: rgb(255 , 255 , 255) ; display: inline ; float: none&quot;&gt;Prov_ra_set_EventChainConfig(CoreID, OnOff=TRUE)&lt;br&gt;Start item info, End item info, ID, TRT 형태로 입력받은 eventchain 정보를 RA하기 위한 구조체로 옮기는 과정.&lt;br&gt;eventchain index = ID;&lt;br&gt;StartInform, EndInform의 f_onEVc = TRUE;&lt;br&gt;&lt;/span&gt;" style="text;whiteSpace=wrap;html=1;" vertex="1" parent="1">
          <mxGeometry x="660" y="489" width="310" height="80" as="geometry" />
        </mxCell>
        <mxCell id="O0rYHsYLg1H_dyIOlwgl-75" value="" style="points=[];perimeter=orthogonalPerimeter;rounded=0;shadow=0;strokeWidth=1;" vertex="1" parent="1">
          <mxGeometry x="575" y="470" width="10" height="120" as="geometry" />
        </mxCell>
      </root>
    </mxGraphModel>
  </diagram>
</mxfile>
